<svg height="537" version="1.1" width="1024" 
    xmlns="http://www.w3.org/2000/svg" style="overflow-x: hidden; overflow-y: hidden; position: relative; " viewBox="0 620 533 280" preserveAspectRatio="xMinYMin">
    <path style="" fill="none" stroke="#aaaaaa" d="M0,900L5330,900" stroke-width="2.08203125" class="yard-line"></path>
    <path style="" fill="none" stroke="#aaaaaa" d="M0,890L6.67,890M170.99665000000002,890L177.66665,890M355.33335,890L362.00335,890M526.33,890L533,890" stroke-width="1.041015625" class="hash"></path>
    <path style="" fill="none" stroke="#aaaaaa" d="M0,880L6.67,880M170.99665000000002,880L177.66665,880M355.33335,880L362.00335,880M526.33,880L533,880" stroke-width="1.041015625" class="hash"></path>
    <path style="" fill="none" stroke="#aaaaaa" d="M0,870L6.67,870M170.99665000000002,870L177.66665,870M355.33335,870L362.00335,870M526.33,870L533,870" stroke-width="1.041015625" class="hash"></path>
    <path style="" fill="none" stroke="#aaaaaa" d="M0,860L6.67,860M170.99665000000002,860L177.66665,860M355.33335,860L362.00335,860M526.33,860L533,860" stroke-width="1.041015625" class="hash"></path>
    <path style="" fill="none" stroke="#aaaaaa" d="M0,850L5330,850" stroke-width="2.08203125" class="yard-line"></path>
    <path style="" fill="none" stroke="#aaaaaa" d="M0,840L6.67,840M170.99665000000002,840L177.66665,840M355.33335,840L362.00335,840M526.33,840L533,840" stroke-width="1.041015625" class="hash"></path>
    <path style="" fill="none" stroke="#aaaaaa" d="M0,830L6.67,830M170.99665000000002,830L177.66665,830M355.33335,830L362.00335,830M526.33,830L533,830" stroke-width="1.041015625" class="hash"></path>
    <path style="" fill="none" stroke="#aaaaaa" d="M0,820L6.67,820M170.99665000000002,820L177.66665,820M355.33335,820L362.00335,820M526.33,820L533,820" stroke-width="1.041015625" class="hash"></path>
    <path style="" fill="none" stroke="#aaaaaa" d="M0,810L6.67,810M170.99665000000002,810L177.66665,810M355.33335,810L362.00335,810M526.33,810L533,810" stroke-width="1.041015625" class="hash"></path>
    <path style="" fill="none" stroke="#aaaaaa" d="M0,790L6.67,790M170.99665000000002,790L177.66665,790M355.33335,790L362.00335,790M526.33,790L533,790" stroke-width="1.041015625" class="hash"></path>
    <path style="" fill="none" stroke="#aaaaaa" d="M0,780L6.67,780M170.99665000000002,780L177.66665,780M355.33335,780L362.00335,780M526.33,780L533,780" stroke-width="1.041015625" class="hash"></path>
    <path style="" fill="none" stroke="#aaaaaa" d="M0,770L6.67,770M170.99665000000002,770L177.66665,770M355.33335,770L362.00335,770M526.33,770L533,770" stroke-width="1.041015625" class="hash"></path>
    <path style="" fill="none" stroke="#aaaaaa" d="M0,760L6.67,760M170.99665000000002,760L177.66665,760M355.33335,760L362.00335,760M526.33,760L533,760" stroke-width="1.041015625" class="hash"></path>
    <path style="" fill="none" stroke="#aaaaaa" d="M0,750L5330,750" stroke-width="2.08203125" class="yard-line"></path>
    <path style="" fill="none" stroke="#aaaaaa" d="M0,740L6.67,740M170.99665000000002,740L177.66665,740M355.33335,740L362.00335,740M526.33,740L533,740" stroke-width="1.041015625" class="hash"></path>
    <path style="" fill="none" stroke="#aaaaaa" d="M0,730L6.67,730M170.99665000000002,730L177.66665,730M355.33335,730L362.00335,730M526.33,730L533,730" stroke-width="1.041015625" class="hash"></path>
    <path style="" fill="none" stroke="#aaaaaa" d="M0,720L6.67,720M170.99665000000002,720L177.66665,720M355.33335,720L362.00335,720M526.33,720L533,720" stroke-width="1.041015625" class="hash"></path>
    <path style="" fill="none" stroke="#aaaaaa" d="M0,710L6.67,710M170.99665000000002,710L177.66665,710M355.33335,710L362.00335,710M526.33,710L533,710" stroke-width="1.041015625" class="hash"></path>
    <path style="" fill="none" stroke="#aaaaaa" d="M0,700L5330,700" stroke-width="2.08203125" class="yard-line"></path>
    <path style="" fill="none" stroke="#aaaaaa" d="M0,690L6.67,690M170.99665000000002,690L177.66665,690M355.33335,690L362.00335,690M526.33,690L533,690" stroke-width="1.041015625" class="hash"></path>
    <path style="" fill="none" stroke="#aaaaaa" d="M0,680L6.67,680M170.99665000000002,680L177.66665,680M355.33335,680L362.00335,680M526.33,680L533,680" stroke-width="1.041015625" class="hash"></path>
    <path style="" fill="none" stroke="#aaaaaa" d="M0,670L6.67,670M170.99665000000002,670L177.66665,670M355.33335,670L362.00335,670M526.33,670L533,670" stroke-width="1.041015625" class="hash"></path>
    <path style="" fill="none" stroke="#aaaaaa" d="M0,660L6.67,660M170.99665000000002,660L177.66665,660M355.33335,660L362.00335,660M526.33,660L533,660" stroke-width="1.041015625" class="hash"></path>
    <path style="" fill="none" stroke="#aaaaaa" d="M0,650L5330,650" stroke-width="2.08203125" class="yard-line"></path>
    <path style="" fill="none" stroke="#aaaaaa" d="M0,640L6.67,640M170.99665000000002,640L177.66665,640M355.33335,640L362.00335,640M526.33,640L533,640" stroke-width="1.041015625" class="hash"></path>
    <path style="" fill="none" stroke="#aaaaaa" d="M0,630L6.67,630M170.99665000000002,630L177.66665,630M355.33335,630L362.00335,630M526.33,630L533,630" stroke-width="1.041015625" class="hash"></path>
    <path style="" fill="none" stroke="#aaaaaa" d="M0,620L6.67,620M170.99665000000002,620L177.66665,620M355.33335,620L362.00335,620M526.33,620L533,620" stroke-width="1.041015625" class="hash"></path>
    <path style="" fill="none" stroke="#6666ff" d="M0,800L533,800" stroke-width="1.7766666666666668"></path>
    <rect x="0.01" y="-100" width="533" height="1200" r="0" rx="0" ry="0" fill="#bbbbbb" stroke="#aaaaaa" style="fill-opacity: 0.2; " stroke-width="3.123046875" fill-opacity="0.2"></rect>
    <rect x="242.26670000000001" y="639.6333" width="100" height="80" r="0" rx="0" ry="0" fill="#989797" stroke="#666666" style="fill-opacity: 0.4; stroke-opacity: 1; " fill-opacity="0.4" stroke-width="2.08203125" stroke-opacity="1" stroke-dasharray="6,2"></rect>
    <desc>Created with Raphaël 2.0.1</desc>
    <defs></defs>
    <path style="" fill="none" stroke="#6666ff" d="M0,800L533,800" stroke-width="1.7766666666666668"></path>
    <path style="stroke-opacity: 1; " fill="none" stroke="#0000ff" d="M128.2126,815.3563L137.3333,736.375L41.3333,695.8417" stroke-width="1.7766666666666668" stroke-opacity="1"></path>
    <path style="stroke-opacity: 1; fill-opacity: 1; " fill="#0000ff" stroke="#0000ff" d="M45.03916586483418,694.3361907201026L41.3333,695.8417L42.83880927989727,699.5475658648342Z" stroke-width="1.7766666666666668" stroke-opacity="1" fill-opacity="1"></path>
    <path style="stroke-opacity: 1; " fill="none" stroke="#008000" d="M77.6639,806.2685L50.9333,785.4417L37.0667,729.975" stroke-width="1.7766666666666668" stroke-opacity="1"></path>
    <path style="stroke-opacity: 1; fill-opacity: 1; " fill="#008000" stroke="#008000" d="M40.49666908380866,732.032987386773L37.0667,729.975L35.008712613227,733.4049690838087Z" stroke-width="1.7766666666666668" stroke-opacity="1" fill-opacity="1"></path>
    <path style="stroke-opacity: 1; " fill="none" stroke="#ff0000" d="M445.0415,823.1955L405.6,765.175L489.8667,667.0417" stroke-width="1.7766666666666668" stroke-opacity="1"></path>
    <path style="stroke-opacity: 1; fill-opacity: 1; " fill="#ff0000" stroke="#ff0000" d="M490.1699171458214,671.03019086278L489.8667,667.0417L485.8782091372199,667.3449171458215Z" stroke-width="1.7766666666666668" stroke-opacity="1" fill-opacity="1"></path>
    <circle cx="220.7303" cy="810" r="6" fill="#eeeeee" stroke="#2e2e2e" style="fill-opacity: 0.5; stroke-opacity: 1; " fill-opacity="0.5" stroke-width="2.08203125" stroke-opacity="1" class="player" id="player_1"></circle>
    <circle cx="240.7303" cy="810" r="6" fill="#4d4d4d" stroke="#2e2e2e" style="fill-opacity: 0; stroke-opacity: 1; " fill-opacity="0" stroke-width="2.08203125" stroke-opacity="1" class="player" id="player_2"></circle>
    <path style="fill-opacity: 1; stroke-opacity: 0; " fill="#989797" stroke="#2e2e2e" d="M240.7303,822M240.7303,816A6,6,0,1,1,240.7303,804Z" fill-opacity="1" stroke-width="0" stroke-opacity="0" class="shade" id="shade_2"></path>
    <rect x="254.7303" y="804" width="12" height="12" r="0" rx="0" ry="0" fill="none" stroke="#2e2e2e" style="fill-opacity: 0; stroke-opacity: 1; " fill-opacity="0" stroke-width="2.08203125" stroke-opacity="1" class="player" id="player_3"></rect>
    <rect x="259.5303" y="804" width="2.4" height="12" r="0" rx="0" ry="0" fill="#989797" stroke="#2e2e2e" style="fill-opacity: 1; stroke-opacity: 0; " fill-opacity="1" stroke-width="0" stroke-opacity="0" class="shade" id="shade_3"></rect>
    <circle cx="280.7303" cy="810" r="6" fill="#4d4d4d" stroke="#2e2e2e" style="fill-opacity: 0; stroke-opacity: 1; " fill-opacity="0" stroke-width="2.08203125" stroke-opacity="1" class="player" id="player_4"></circle>
    <path style="fill-opacity: 1; stroke-opacity: 0; " fill="#989797" stroke="#2e2e2e" d="M280.7303,810M280.7303,804A6,6,0,1,1,280.7303,816Z" fill-opacity="1" stroke-width="0" stroke-opacity="0" class="shade" id="shade_4"></path>
    <circle cx="260.7303" cy="837.603" r="6" fill="#eeeeee" stroke="#2e2e2e" style="fill-opacity: 0.5; stroke-opacity: 1; " fill-opacity="0.5" stroke-width="2.08203125" stroke-opacity="1" class="player" id="player_4937"></circle>
    <circle cx="448.4195" cy="828.1648" r="6" fill="#d12a2a" stroke="#2e2e2e" style="fill-opacity: 1; stroke-opacity: 1; " fill-opacity="1" stroke-width="2.08203125" stroke-opacity="1" class="player" id="player_4990"></circle>
    <circle cx="300.7303" cy="810" r="6" fill="#4d4d4d" stroke="#2e2e2e" style="fill-opacity: 0; stroke-opacity: 1; " fill-opacity="0" stroke-width="2.08203125" stroke-opacity="1" class="player" id="player_5"></circle>
    <path style="fill-opacity: 1; stroke-opacity: 0; " fill="#989797" stroke="#2e2e2e" d="M300.7303,810M300.7303,804A6,6,0,1,1,300.7303,816Z" fill-opacity="1" stroke-width="0" stroke-opacity="0" class="shade" id="shade_5"></path>
    <circle cx="317.3333" cy="810" r="6" fill="#eeeeee" stroke="#2e2e2e" style="fill-opacity: 0.5; stroke-opacity: 1; " fill-opacity="0.5" stroke-width="2.08203125" stroke-opacity="1" class="player" id="player_5049"></circle>
    <circle cx="275.9101" cy="844.4195" r="6" fill="#eeeeee" stroke="#2e2e2e" style="fill-opacity: 0.5; stroke-opacity: 1; " fill-opacity="0.5" stroke-width="2.08203125" stroke-opacity="1" class="player" id="player_5114"></circle>
    <circle cx="127.5206" cy="821.3483" r="6" fill="#2079f2" stroke="#2e2e2e" style="fill-opacity: 1; stroke-opacity: 1; " fill-opacity="1" stroke-width="2.08203125" stroke-opacity="1" class="player" id="player_5185"></circle>
    <circle cx="82.4532" cy="810" r="6" fill="#46b943" stroke="#2e2e2e" style="fill-opacity: 1; stroke-opacity: 1; " fill-opacity="1" stroke-width="2.08203125" stroke-opacity="1" class="player" id="player_5262"></circle>
    <text style="text-anchor: middle; font: normal normal normal 10px/normal Arial; font-weight: bold; font-size: 8px; opacity: 1; " x="82.4532" y="810" text-anchor="middle" font="10px &quot;Arial&quot;" stroke="none" fill="#ffffff" font-weight="bold" font-size="8px" opacity="1" class="player-label" id="player_label_5262">
        <tspan dy="3">WR</tspan>
    </text>
    <circle cx="210.0892" cy="790" r="6" fill="#4d4d4d" stroke="#2e2e2e" style="fill-opacity: 1; stroke-opacity: 1; opacity: 0; " fill-opacity="1" stroke-width="2.08203125" stroke-opacity="1" opacity="0" class="player" id="player_5263"></circle>
    <text style="text-anchor: middle; font: normal normal normal 10px/normal Arial; font-weight: bold; font-size: 10px; opacity: 1; " x="210.0892" y="790" text-anchor="middle" font="10px &quot;Arial&quot;" stroke="none" fill="#4d4d4d" font-weight="bold" font-size="10px" opacity="1" class="player-label" id="player_label_5263">
        <tspan dy="4">E</tspan>
    </text>
    <circle cx="245.0446" cy="790" r="6" fill="#4d4d4d" stroke="#2e2e2e" style="fill-opacity: 1; stroke-opacity: 1; opacity: 0; " fill-opacity="1" stroke-width="2.08203125" stroke-opacity="1" opacity="0" class="player" id="player_5264"></circle>
    <text style="text-anchor: middle; font: normal normal normal 10px/normal Arial; font-weight: bold; font-size: 10px; opacity: 1; " x="245.0446" y="790" text-anchor="middle" font="10px &quot;Arial&quot;" stroke="none" fill="#4d4d4d" font-weight="bold" font-size="10px" opacity="1" class="player-label" id="player_label_5264">
        <tspan dy="4">T</tspan>
    </text>
    <circle cx="277.2185" cy="790" r="6" fill="#4d4d4d" stroke="#2e2e2e" style="fill-opacity: 1; stroke-opacity: 1; opacity: 0; " fill-opacity="1" stroke-width="2.08203125" stroke-opacity="1" opacity="0" class="player" id="player_5265"></circle>
    <text style="text-anchor: middle; font: normal normal normal 10px/normal Arial; font-weight: bold; font-size: 10px; opacity: 1; " x="277.2185" y="790" text-anchor="middle" font="10px &quot;Arial&quot;" stroke="none" fill="#4d4d4d" font-weight="bold" font-size="10px" opacity="1" class="player-label" id="player_label_5265">
        <tspan dy="4">T</tspan>
    </text>
    <circle cx="312.1019" cy="790" r="6" fill="#4d4d4d" stroke="#2e2e2e" style="fill-opacity: 1; stroke-opacity: 1; opacity: 0; " fill-opacity="1" stroke-width="2.08203125" stroke-opacity="1" opacity="0" class="player" id="player_5266"></circle>
    <text style="text-anchor: middle; font: normal normal normal 10px/normal Arial; font-weight: bold; font-size: 10px; opacity: 1; " x="312.1019" y="790" text-anchor="middle" font="10px &quot;Arial&quot;" stroke="none" fill="#4d4d4d" font-weight="bold" font-size="10px" opacity="1" class="player-label" id="player_label_5266">
        <tspan dy="4">E</tspan>
    </text>
    <circle cx="196.535" cy="748.4076" r="6" fill="#4d4d4d" stroke="#2e2e2e" style="fill-opacity: 1; stroke-opacity: 1; opacity: 0; " fill-opacity="1" stroke-width="2.08203125" stroke-opacity="1" opacity="0" class="player" id="player_5267"></circle>
    <text style="text-anchor: middle; font: normal normal normal 10px/normal Arial; font-weight: bold; font-size: 10px; opacity: 1; " x="196.535" y="748.4076" text-anchor="middle" font="10px &quot;Arial&quot;" stroke="none" fill="#4d4d4d" font-weight="bold" font-size="10px" opacity="1" class="player-label" id="player_label_5267">
        <tspan dy="4.407600000000002">LB</tspan>
    </text>
    <circle cx="258.242" cy="734.4968" r="6" fill="#4d4d4d" stroke="#2e2e2e" style="fill-opacity: 1; stroke-opacity: 1; opacity: 0; " fill-opacity="1" stroke-width="2.08203125" stroke-opacity="1" opacity="0" class="player" id="player_5268"></circle>
    <text style="text-anchor: middle; font: normal normal normal 10px/normal Arial; font-weight: bold; font-size: 10px; opacity: 1; " x="258.242" y="734.4968" text-anchor="middle" font="10px &quot;Arial&quot;" stroke="none" fill="#4d4d4d" font-weight="bold" font-size="10px" opacity="1" class="player-label" id="player_label_5268">
        <tspan dy="3.9968000000000075">LB</tspan>
    </text>
    <circle cx="318.1656" cy="747.3376" r="6" fill="#4d4d4d" stroke="#2e2e2e" style="fill-opacity: 1; stroke-opacity: 1; opacity: 0; " fill-opacity="1" stroke-width="2.08203125" stroke-opacity="1" opacity="0" class="player" id="player_5269"></circle>
    <text style="text-anchor: middle; font: normal normal normal 10px/normal Arial; font-weight: bold; font-size: 10px; opacity: 1; " x="318.1656" y="747.3376" text-anchor="middle" font="10px &quot;Arial&quot;" stroke="none" fill="#4d4d4d" font-weight="bold" font-size="10px" opacity="1" class="player-label" id="player_label_5269">
        <tspan dy="4.337599999999952">LB</tspan>
    </text>
    <circle cx="446.9299" cy="764.1019" r="6" fill="#4d4d4d" stroke="#2e2e2e" style="fill-opacity: 1; stroke-opacity: 1; opacity: 0; " fill-opacity="1" stroke-width="2.08203125" stroke-opacity="1" opacity="0" class="player" id="player_5270"></circle>
    <text style="text-anchor: middle; font: normal normal normal 10px/normal Arial; font-weight: bold; font-size: 10px; opacity: 1; " x="446.9299" y="764.1019" text-anchor="middle" font="10px &quot;Arial&quot;" stroke="none" fill="#4d4d4d" font-weight="bold" font-size="10px" opacity="1" class="player-label" id="player_label_5270">
        <tspan dy="4.1019000000000005">C</tspan>
    </text>
    <circle cx="58.8535" cy="764.8153" r="6" fill="#4d4d4d" stroke="#2e2e2e" style="fill-opacity: 1; stroke-opacity: 1; opacity: 0; " fill-opacity="1" stroke-width="2.08203125" stroke-opacity="1" opacity="0" class="player" id="player_5271"></circle>
    <text style="text-anchor: middle; font: normal normal normal 10px/normal Arial; font-weight: bold; font-size: 10px; opacity: 1; " x="58.8535" y="764.8153" text-anchor="middle" font="10px &quot;Arial&quot;" stroke="none" fill="#4d4d4d" font-weight="bold" font-size="10px" opacity="1" class="player-label" id="player_label_5271">
        <tspan dy="4.315299999999979">C</tspan>
    </text>
    <circle cx="200.4586" cy="676.7134" r="6" fill="#4d4d4d" stroke="#2e2e2e" style="fill-opacity: 1; stroke-opacity: 1; opacity: 0; " fill-opacity="1" stroke-width="2.08203125" stroke-opacity="1" opacity="0" class="player" id="player_5272"></circle>
    <text style="text-anchor: middle; font: normal normal normal 10px/normal Arial; font-weight: bold; font-size: 10px; opacity: 1; " x="200.4586" y="676.7134" text-anchor="middle" font="10px &quot;Arial&quot;" stroke="none" fill="#4d4d4d" font-weight="bold" font-size="10px" opacity="1" class="player-label" id="player_label_5272">
        <tspan dy="4.213399999999979">S</tspan>
    </text>
    <circle cx="302.9333" cy="675.4667" r="6" fill="#4d4d4d" stroke="#2e2e2e" style="fill-opacity: 1; stroke-opacity: 1; opacity: 0; " fill-opacity="1" stroke-width="2.08203125" stroke-opacity="1" opacity="0" class="player" id="player_5273"></circle>
    <text style="text-anchor: middle; font: normal normal normal 10px/normal Arial; font-weight: bold; font-size: 10px; opacity: 1; " x="302.9333" y="675.4667" text-anchor="middle" font="10px &quot;Arial&quot;" stroke="none" fill="#4d4d4d" font-weight="bold" font-size="10px" opacity="1" class="player-label" id="player_label_5273">
        <tspan dy="3.966699999999946">S</tspan>
    </text>
</svg>
