<svg height="268.96810506566607" version="1.1" width="512" xmlns="http://www.w3.org/2000/svg" style="overflow-x: hidden; overflow-y: hidden; position: relative; " viewBox="0 620 533 280" preserveAspectRatio="xMinYMin"><path style="" fill="none" stroke="#aaaaaa" d="M0,900L5330,900" stroke-width="2.08203125" class="yard-line"></path><path style="" fill="none" stroke="#aaaaaa" d="M0,890L6.67,890M170.99665000000002,890L177.66665,890M355.33335,890L362.00335,890M526.33,890L533,890" stroke-width="1.041015625" class="hash"></path><path style="" fill="none" stroke="#aaaaaa" d="M0,880L6.67,880M170.99665000000002,880L177.66665,880M355.33335,880L362.00335,880M526.33,880L533,880" stroke-width="1.041015625" class="hash"></path><path style="" fill="none" stroke="#aaaaaa" d="M0,870L6.67,870M170.99665000000002,870L177.66665,870M355.33335,870L362.00335,870M526.33,870L533,870" stroke-width="1.041015625" class="hash"></path><path style="" fill="none" stroke="#aaaaaa" d="M0,860L6.67,860M170.99665000000002,860L177.66665,860M355.33335,860L362.00335,860M526.33,860L533,860" stroke-width="1.041015625" class="hash"></path><path style="" fill="none" stroke="#aaaaaa" d="M0,850L5330,850" stroke-width="2.08203125" class="yard-line"></path><path style="" fill="none" stroke="#aaaaaa" d="M0,840L6.67,840M170.99665000000002,840L177.66665,840M355.33335,840L362.00335,840M526.33,840L533,840" stroke-width="1.041015625" class="hash"></path><path style="" fill="none" stroke="#aaaaaa" d="M0,830L6.67,830M170.99665000000002,830L177.66665,830M355.33335,830L362.00335,830M526.33,830L533,830" stroke-width="1.041015625" class="hash"></path><path style="" fill="none" stroke="#aaaaaa" d="M0,820L6.67,820M170.99665000000002,820L177.66665,820M355.33335,820L362.00335,820M526.33,820L533,820" stroke-width="1.041015625" class="hash"></path><path style="" fill="none" stroke="#aaaaaa" d="M0,810L6.67,810M170.99665000000002,810L177.66665,810M355.33335,810L362.00335,810M526.33,810L533,810" stroke-width="1.041015625" class="hash"></path><path style="" fill="none" stroke="#aaaaaa" d="M0,790L6.67,790M170.99665000000002,790L177.66665,790M355.33335,790L362.00335,790M526.33,790L533,790" stroke-width="1.041015625" class="hash"></path><path style="" fill="none" stroke="#aaaaaa" d="M0,780L6.67,780M170.99665000000002,780L177.66665,780M355.33335,780L362.00335,780M526.33,780L533,780" stroke-width="1.041015625" class="hash"></path><path style="" fill="none" stroke="#aaaaaa" d="M0,770L6.67,770M170.99665000000002,770L177.66665,770M355.33335,770L362.00335,770M526.33,770L533,770" stroke-width="1.041015625" class="hash"></path><path style="" fill="none" stroke="#aaaaaa" d="M0,760L6.67,760M170.99665000000002,760L177.66665,760M355.33335,760L362.00335,760M526.33,760L533,760" stroke-width="1.041015625" class="hash"></path><path style="" fill="none" stroke="#aaaaaa" d="M0,750L5330,750" stroke-width="2.08203125" class="yard-line"></path><path style="" fill="none" stroke="#aaaaaa" d="M0,740L6.67,740M170.99665000000002,740L177.66665,740M355.33335,740L362.00335,740M526.33,740L533,740" stroke-width="1.041015625" class="hash"></path><path style="" fill="none" stroke="#aaaaaa" d="M0,730L6.67,730M170.99665000000002,730L177.66665,730M355.33335,730L362.00335,730M526.33,730L533,730" stroke-width="1.041015625" class="hash"></path><path style="" fill="none" stroke="#aaaaaa" d="M0,720L6.67,720M170.99665000000002,720L177.66665,720M355.33335,720L362.00335,720M526.33,720L533,720" stroke-width="1.041015625" class="hash"></path><path style="" fill="none" stroke="#aaaaaa" d="M0,710L6.67,710M170.99665000000002,710L177.66665,710M355.33335,710L362.00335,710M526.33,710L533,710" stroke-width="1.041015625" class="hash"></path><path style="" fill="none" stroke="#aaaaaa" d="M0,700L5330,700" stroke-width="2.08203125" class="yard-line"></path><path style="" fill="none" stroke="#aaaaaa" d="M0,690L6.67,690M170.99665000000002,690L177.66665,690M355.33335,690L362.00335,690M526.33,690L533,690" stroke-width="1.041015625" class="hash"></path><path style="" fill="none" stroke="#aaaaaa" d="M0,680L6.67,680M170.99665000000002,680L177.66665,680M355.33335,680L362.00335,680M526.33,680L533,680" stroke-width="1.041015625" class="hash"></path><path style="" fill="none" stroke="#aaaaaa" d="M0,670L6.67,670M170.99665000000002,670L177.66665,670M355.33335,670L362.00335,670M526.33,670L533,670" stroke-width="1.041015625" class="hash"></path><path style="" fill="none" stroke="#aaaaaa" d="M0,660L6.67,660M170.99665000000002,660L177.66665,660M355.33335,660L362.00335,660M526.33,660L533,660" stroke-width="1.041015625" class="hash"></path><path style="" fill="none" stroke="#aaaaaa" d="M0,650L5330,650" stroke-width="2.08203125" class="yard-line"></path><path style="" fill="none" stroke="#aaaaaa" d="M0,640L6.67,640M170.99665000000002,640L177.66665,640M355.33335,640L362.00335,640M526.33,640L533,640" stroke-width="1.041015625" class="hash"></path><path style="" fill="none" stroke="#aaaaaa" d="M0,630L6.67,630M170.99665000000002,630L177.66665,630M355.33335,630L362.00335,630M526.33,630L533,630" stroke-width="1.041015625" class="hash"></path><path style="" fill="none" stroke="#aaaaaa" d="M0,620L6.67,620M170.99665000000002,620L177.66665,620M355.33335,620L362.00335,620M526.33,620L533,620" stroke-width="1.041015625" class="hash"></path><path style="" fill="none" stroke="#6666ff" d="M0,800L533,800" stroke-width="1.7766666666666668"></path><rect x="0.01" y="-100" width="533" height="1200" r="0" rx="0" ry="0" fill="#bbbbbb" stroke="#aaaaaa" style="fill-opacity: 0.2; " stroke-width="3.123046875" fill-opacity="0.2"></rect><desc>Created with Raphaël 2.0.1</desc><defs></defs><path style="" fill="none" stroke="#6666ff" d="M0,800L533,800" stroke-width="1.7766666666666668"></path><path style="stroke-opacity: 1; " fill="none" stroke="#008000" d="M449.0667,803.9157L449.0667,740.75L342.4,668.75" stroke-width="1.7766666666666668" stroke-opacity="1"></path><path style="stroke-opacity: 1; fill-opacity: 1; " fill="#008000" stroke="#008000" d="M346.32676616029977,667.9880895575434L342.4,668.75L343.1619104424566,672.6767661602997Z" stroke-width="1.7766666666666668" stroke-opacity="1" fill-opacity="1"></path><path style="stroke-opacity: 1; " fill="none" stroke="#008000" d="M332.2667,820.5686L332.2667,756.75L502.4,674.0833" stroke-width="1.7766666666666668" stroke-opacity="1"></path><path style="stroke-opacity: 1; fill-opacity: 1; " fill="#008000" stroke="#008000" d="M501.0921064665101,677.8634341914085L502.4,674.0833L498.6198658085915,672.7754064665102Z" stroke-width="1.7766666666666668" stroke-opacity="1" fill-opacity="1"></path><path style="stroke-opacity: 1; " fill="none" stroke="#008000" d="M204.2667,803.9318L204.2667,717.8167L60.2667,698.6167" stroke-width="1.7766666666666668" stroke-opacity="1"></path><path style="stroke-opacity: 1; fill-opacity: 1; " fill="#008000" stroke="#008000" d="M63.444131331908785,696.1868995697168L60.2667,698.6167L62.69650043028319,701.7941313319088Z" stroke-width="1.7766666666666668" stroke-opacity="1" fill-opacity="1"></path><path style="stroke-opacity: 1; " fill="none" stroke="#008000" d="M260.086,880.4871C258.3383333333333,880.5753666666666,253.6587833333333,881.3728833333333,249.6,881.0167C245.54121666666666,880.6605166666667,252.71108333333333,885.3722333333335,235.7333,878.35C218.75551666666672,871.3277666666667,164.08885000000004,847.1499666666667,147.7333,838.8833C131.37775000000002,830.6166333333332,139.2888833333333,830.4388833333333,137.6,828.75" stroke-width="1.7766666666666668" stroke-opacity="1"></path><path style="stroke-opacity: 1; fill-opacity: 1; " fill="#008000" stroke="#008000" d="M141.6,828.75L137.6,828.75L137.6,832.75Z" stroke-width="1.7766666666666668" stroke-opacity="1" fill-opacity="1"></path><circle cx="306" cy="810" r="6" fill="#eeeeee" stroke="#2e2e2e" style="fill-opacity: 0.5; stroke-opacity: 1; " fill-opacity="0.5" stroke-width="2.08203125" stroke-opacity="1" class="player" id="player_1"></circle><circle cx="286" cy="810" r="6" fill="#eeeeee" stroke="#2e2e2e" style="fill-opacity: 0.5; stroke-opacity: 1; " fill-opacity="0.5" stroke-width="2.08203125" stroke-opacity="1" class="player" id="player_2"></circle><rect x="260" y="804" width="12" height="12" r="0" rx="0" ry="0" fill="#eeeeee" stroke="#2e2e2e" style="fill-opacity: 0.5; stroke-opacity: 1; " fill-opacity="0.5" stroke-width="2.08203125" stroke-opacity="1" class="player" id="player_3"></rect><circle cx="246" cy="810" r="6" fill="#eeeeee" stroke="#2e2e2e" style="fill-opacity: 0.5; stroke-opacity: 1; " fill-opacity="0.5" stroke-width="2.08203125" stroke-opacity="1" class="player" id="player_4"></circle><circle cx="226" cy="810" r="6" fill="#eeeeee" stroke="#2e2e2e" style="fill-opacity: 0.5; stroke-opacity: 1; " fill-opacity="0.5" stroke-width="2.08203125" stroke-opacity="1" class="player" id="player_5"></circle><circle cx="449.0667" cy="810" r="6" fill="#46b943" stroke="#2e2e2e" style="fill-opacity: 1; stroke-opacity: 1; " fill-opacity="1" stroke-width="2.08203125" stroke-opacity="1" class="player" id="player_491"></circle><text style="text-anchor: middle; font: normal normal normal 10px/normal Arial; font-weight: bold; font-size: 8px; opacity: 1; " x="449.0667" y="810" text-anchor="middle" font="10px &quot;Arial&quot;" stroke="none" fill="#ffffff" font-weight="bold" font-size="8px" opacity="1" class="player-label" id="player_label_491"><tspan dy="3">X</tspan></text><circle cx="332.2667" cy="826.6167" r="6" fill="#46b943" stroke="#2e2e2e" style="fill-opacity: 1; stroke-opacity: 1; " fill-opacity="1" stroke-width="2.08203125" stroke-opacity="1" class="player" id="player_494"></circle><text style="text-anchor: middle; font: normal normal normal 10px/normal Arial; font-weight: bold; font-size: 8px; opacity: 1; " x="332.2667" y="826.6167" text-anchor="middle" font="10px &quot;Arial&quot;" stroke="none" fill="#ffffff" font-weight="bold" font-size="8px" opacity="1" class="player-label" id="player_label_494"><tspan dy="3.116700000000037">Y</tspan></text><circle cx="266" cy="824.4833" r="6" fill="#46b943" stroke="#2e2e2e" style="fill-opacity: 1; stroke-opacity: 1; " fill-opacity="1" stroke-width="2.08203125" stroke-opacity="1" class="player" id="player_497"></circle><text style="text-anchor: middle; font: normal normal normal 10px/normal Arial; font-weight: bold; font-size: 8px; opacity: 1; " x="266" y="824.4833" text-anchor="middle" font="10px &quot;Arial&quot;" stroke="none" fill="#ffffff" font-weight="bold" font-size="8px" opacity="1" class="player-label" id="player_label_497"><tspan dy="2.9832999999999856">Q</tspan></text><circle cx="266" cy="857.55" r="6" fill="#46b943" stroke="#2e2e2e" style="fill-opacity: 1; stroke-opacity: 1; " fill-opacity="1" stroke-width="2.08203125" stroke-opacity="1" class="player" id="player_500"></circle><circle cx="266" cy="878.8833" r="6" fill="#46b943" stroke="#2e2e2e" style="fill-opacity: 1; stroke-opacity: 1; " fill-opacity="1" stroke-width="2.08203125" stroke-opacity="1" class="player" id="player_503"></circle><text style="text-anchor: middle; font: normal normal normal 10px/normal Arial; font-weight: bold; font-size: 8px; opacity: 1; " x="266" y="878.8833" text-anchor="middle" font="10px &quot;Arial&quot;" stroke="none" fill="#ffffff" font-weight="bold" font-size="8px" opacity="1" class="player-label" id="player_label_503"><tspan dy="3.383299999999963">H</tspan></text><circle cx="204.2667" cy="810" r="6" fill="#46b943" stroke="#2e2e2e" style="fill-opacity: 1; stroke-opacity: 1; " fill-opacity="1" stroke-width="2.08203125" stroke-opacity="1" class="player" id="player_506"></circle><text style="text-anchor: middle; font: normal normal normal 10px/normal Arial; font-weight: bold; font-size: 8px; opacity: 1; " x="204.2667" y="810" text-anchor="middle" font="10px &quot;Arial&quot;" stroke="none" fill="#ffffff" font-weight="bold" font-size="8px" opacity="1" class="player-label" id="player_label_506"><tspan dy="3">Z</tspan></text><image x="259" y="678" width="5" height="0" preserveAspectRatio="none" href="/Css/practice-script/img/icon-deletenote.png" style=""></image><text style="font: normal normal normal 10px/normal Arial; font-weight: bold; font-size: 9px; text-anchor: start; " x="268.8" y="687.3083" text-anchor="start" font="10px &quot;Arial&quot;" stroke="none" fill="#4d4d4d" font-weight="bold" font-size="9px"><tspan dy="-1.691699999999969">This is a note. It is a very nice note.</tspan><tspan dy="10.799999999999999" x="268.8">This is the second line of a note.</tspan></text></svg>